<?xml version="1.0" standalone="no"?>
<!DOCTYPE svg PUBLIC "-//W3C//DTD SVG 20010904//EN"
 "http://www.w3.org/TR/2001/REC-SVG-20010904/DTD/svg10.dtd">
<svg version="1.0" xmlns="http://www.w3.org/2000/svg"
 width="189.000000pt" height="189.000000pt" viewBox="0 0 189.000000 189.000000"
 preserveAspectRatio="xMidYMid meet">

<g transform="translate(0.000000,189.000000) scale(0.100000,-0.100000)"
fill="#000000" stroke="none">
<path d="M1230 1314 c-177 -283 -328 -518 -335 -520 -7 -3 -70 31 -139 75 -70
45 -133 81 -140 81 -18 0 -149 -204 -144 -225 4 -20 496 -335 513 -329 20 8
807 1273 803 1291 -3 18 -194 141 -220 142 -12 1 -115 -156 -338 -515z"/>
<path d="M211 1595 l-41 -45 0 -676 0 -676 39 -39 39 -39 694 0 694 0 37 38
37 38 -2 567 -3 567 -87 -140 -88 -140 0 -375 0 -375 -590 0 -590 0 2 578 3
577 410 3 410 3 50 81 c28 45 52 86 53 90 2 4 -228 8 -511 8 l-514 0 -42 -45z"/>
</g>
</svg>
